<?xml version="1.0" encoding="UTF-8" standalone="no"?>
<!-- Generator: Adobe Illustrator 19.0.0, SVG Export Plug-In . SVG Version: 6.00 Build 0)  -->

<svg
   version="1.1"
   id="Layer_1"
   x="0px"
   y="0px"
   viewBox="0 0 290.476 290.476"
   style="enable-background:new 0 0 290.476 290.476;"
   xml:space="preserve"
   sodipodi:docname="bookshelf.svg"
   inkscape:version="1.1.2 (b8e25be8, 2022-02-05)"
   xmlns:inkscape="http://www.inkscape.org/namespaces/inkscape"
   xmlns:sodipodi="http://sodipodi.sourceforge.net/DTD/sodipodi-0.dtd"
   xmlns="http://www.w3.org/2000/svg"
   xmlns:svg="http://www.w3.org/2000/svg"><defs
   id="defs2108" /><sodipodi:namedview
   id="namedview2106"
   pagecolor="#ffffff"
   bordercolor="#666666"
   borderopacity="1.0"
   inkscape:pageshadow="2"
   inkscape:pageopacity="0.0"
   inkscape:pagecheckerboard="0"
   showgrid="false"
   inkscape:zoom="1.8762307"
   inkscape:cx="40.240253"
   inkscape:cy="145.238"
   inkscape:window-width="1312"
   inkscape:window-height="771"
   inkscape:window-x="0"
   inkscape:window-y="25"
   inkscape:window-maximized="0"
   inkscape:current-layer="g2071" />
<g
   id="g2073">
	<g
   id="g2071">
		<polygon
   style="fill:#000000;fill-opacity:1"
   points="161.905,42.857 0,204.762 85.714,290.476 247.619,128.571 233.333,57.143   "
   id="polygon2057" />
		
		
		
		
		
		<path
   style="fill:#874efe;fill-opacity:1"
   d="M240.476,0c-26.767,0-48.624,21.157-49.881,47.619h9.524c1.243-21.21,18.838-38.095,40.357-38.095    c22.319,0,40.476,18.157,40.476,40.476s-18.157,40.476-40.476,40.476c-4.643,0-9.114-0.867-13.338-2.333    c0.914-2.224,1.433-4.643,1.433-7.19c0-10.505-8.543-19.048-19.048-19.048s-19.048,8.543-19.048,19.048S199.019,100,209.524,100    c4.333,0,8.286-1.51,11.49-3.957c6.043,2.548,12.624,3.957,19.462,3.957c27.571,0,50-22.429,50-50S268.048,0,240.476,0z     M219.048,80.952c0,1.062-0.214,2.062-0.533,3.014c-4.738-3.067-8.81-7.138-11.962-12.019c0.938-0.31,1.924-0.519,2.971-0.519    C214.776,71.429,219.048,75.7,219.048,80.952z M209.524,90.476c-5.252,0-9.524-4.271-9.524-9.524c0-0.505,0.071-0.986,0.148-1.467    c3.071,4.214,6.767,7.824,10.89,10.838C210.543,90.405,210.043,90.476,209.524,90.476z"
   id="path2069" />
	</g>
</g>
<g
   id="g2075">
</g>
<g
   id="g2077">
</g>
<g
   id="g2079">
</g>
<g
   id="g2081">
</g>
<g
   id="g2083">
</g>
<g
   id="g2085">
</g>
<g
   id="g2087">
</g>
<g
   id="g2089">
</g>
<g
   id="g2091">
</g>
<g
   id="g2093">
</g>
<g
   id="g2095">
</g>
<g
   id="g2097">
</g>
<g
   id="g2099">
</g>
<g
   id="g2101">
</g>
<g
   id="g2103">
</g>
</svg>
